<mxfile host="www.draw.io" modified="2020-02-01T18:24:07.268Z" agent="Mozilla/5.0 (Macintosh; Intel Mac OS X 10_14_6) AppleWebKit/537.36 (KHTML, like Gecko) Chrome/79.0.3945.130 Safari/537.36" etag="T8gx_V6NLriS0G2tCQMI" version="12.6.2" type="github">
  <diagram name="Page-1" id="efa7a0a1-bf9b-a30e-e6df-94a7791c09e9">
    <mxGraphModel dx="1426" dy="719" grid="1" gridSize="10" guides="1" tooltips="1" connect="1" arrows="1" fold="1" page="1" pageScale="1" pageWidth="826" pageHeight="1169" background="#ffffff" math="0" shadow="0">
      <root>
        <mxCell id="0"/>
        <mxCell id="1" parent="0"/>
        <mxCell id="1PIqt_r0A0ZmvO-sguY0-114" value="Init" style="rounded=0;whiteSpace=wrap;html=1;" vertex="1" parent="1">
          <mxGeometry x="490" y="20" width="120" height="60" as="geometry"/>
        </mxCell>
        <mxCell id="1PIqt_r0A0ZmvO-sguY0-115" value="Player" style="rounded=1;whiteSpace=wrap;html=1;" vertex="1" parent="1">
          <mxGeometry x="230" y="190" width="120" height="60" as="geometry"/>
        </mxCell>
        <mxCell id="1PIqt_r0A0ZmvO-sguY0-116" value="Bullet" style="rounded=1;whiteSpace=wrap;html=1;" vertex="1" parent="1">
          <mxGeometry x="400" y="190" width="120" height="60" as="geometry"/>
        </mxCell>
        <mxCell id="1PIqt_r0A0ZmvO-sguY0-117" value="Npc" style="rounded=1;whiteSpace=wrap;html=1;" vertex="1" parent="1">
          <mxGeometry x="590" y="190" width="120" height="60" as="geometry"/>
        </mxCell>
        <mxCell id="1PIqt_r0A0ZmvO-sguY0-118" value="PlayerData" style="rounded=1;whiteSpace=wrap;html=1;" vertex="1" parent="1">
          <mxGeometry x="40" y="190" width="120" height="60" as="geometry"/>
        </mxCell>
        <mxCell id="1PIqt_r0A0ZmvO-sguY0-119" value="UI" style="rounded=1;whiteSpace=wrap;html=1;" vertex="1" parent="1">
          <mxGeometry x="750" y="190" width="120" height="60" as="geometry"/>
        </mxCell>
        <mxCell id="1PIqt_r0A0ZmvO-sguY0-120" value="VFX" style="rounded=1;whiteSpace=wrap;html=1;" vertex="1" parent="1">
          <mxGeometry x="920" y="190" width="120" height="60" as="geometry"/>
        </mxCell>
        <mxCell id="1PIqt_r0A0ZmvO-sguY0-121" value="position" style="swimlane;fontStyle=0;childLayout=stackLayout;horizontal=1;startSize=20;fillColor=#ffffff;horizontalStack=0;resizeParent=1;resizeParentMax=0;resizeLast=0;collapsible=0;marginBottom=0;swimlaneFillColor=#ffffff;" vertex="1" parent="1">
          <mxGeometry x="240" y="430" width="100" height="50" as="geometry"/>
        </mxCell>
        <mxCell id="1PIqt_r0A0ZmvO-sguY0-122" value="rotate" style="swimlane;fontStyle=0;childLayout=stackLayout;horizontal=1;startSize=20;fillColor=#ffffff;horizontalStack=0;resizeParent=1;resizeParentMax=0;resizeLast=0;collapsible=0;marginBottom=0;swimlaneFillColor=#ffffff;" vertex="1" parent="1">
          <mxGeometry x="350" y="430" width="100" height="50" as="geometry"/>
        </mxCell>
      </root>
    </mxGraphModel>
  </diagram>
</mxfile>
